<svg width="606" height="105" viewBox="0 0 606 105" fill="none" xmlns="http://www.w3.org/2000/svg">
<path d="M277.439 40.2349H274.726C274.267 40.2349 274 40.5405 274 40.9608V95.7534C274 96.2119 274.306 96.4794 274.726 96.4794H277.439C277.897 96.4794 278.165 96.1737 278.165 95.7534V40.9991C278.203 40.5405 277.897 40.2349 277.439 40.2349Z" fill="white"/>
<path d="M266.779 40.2349H264.066C263.607 40.2349 263.34 40.5405 263.34 40.9608V95.7534C263.34 96.2119 263.646 96.4794 264.066 96.4794H266.779C267.237 96.4794 267.505 96.1737 267.505 95.7534V40.9991C267.505 40.5405 267.199 40.2349 266.779 40.2349Z" fill="white"/>
<path d="M254.626 56.2446H251.913C251.455 56.2446 251.188 56.5503 251.188 56.9706V95.7534C251.188 96.2119 251.493 96.4793 251.913 96.4793H254.626C255.085 96.4793 255.352 96.1737 255.352 95.7534V57.0088C255.391 56.5503 255.085 56.2446 254.626 56.2446Z" fill="white"/>
<path d="M246.067 40.2349H243.201C242.704 40.2349 242.322 40.4641 242.169 40.8462L228.032 86.6595C227.879 87.1181 227.65 87.4237 227.42 87.4237C227.191 87.4237 226.962 87.1181 226.809 86.6595L212.06 43.0624C211.984 42.7185 211.602 42.4128 211.258 42.4128H208.85C208.392 42.4128 208.125 42.6039 207.972 43.0242L193.49 86.6595C193.299 87.1563 193.032 87.4237 192.802 87.4237C192.573 87.4237 192.382 87.1181 192.268 86.6595L178.015 40.8844C177.824 40.4259 177.557 40.2731 176.984 40.2731H174.042C173.736 40.2731 173.507 40.3877 173.392 40.5787C173.239 40.7698 173.239 41.0755 173.392 41.3812L190.663 95.9063C190.816 96.2884 191.198 96.5176 191.694 96.5176H193.49C193.987 96.5176 194.369 96.2884 194.522 95.9063L209.385 51.9652C209.538 51.5449 209.768 51.2774 210.035 51.2774C210.264 51.2774 210.494 51.5449 210.608 51.9652L225.548 95.9063C225.701 96.2884 226.083 96.5176 226.58 96.5176H228.376C228.834 96.5176 229.331 96.3266 229.407 95.9063L246.64 41.3429C246.754 41.0373 246.754 40.7316 246.64 40.5405C246.602 40.3495 246.372 40.2349 246.067 40.2349Z" fill="white"/>
<path d="M304.452 56.2446C298.682 56.2446 293.447 58.3462 289.703 62.1671C286.073 65.8734 284.086 70.9553 284.086 76.4575C284.086 81.9597 286.073 87.0416 289.703 90.7861C293.447 94.6453 298.682 96.7468 304.452 96.7468C310.183 96.7468 315.418 94.6453 319.162 90.7861C322.792 87.0416 324.817 81.9597 324.817 76.4575C324.817 70.9553 322.792 65.8734 319.162 62.1671C315.418 58.3462 310.183 56.2446 304.452 56.2446ZM316.335 88.1496C313.355 91.321 309.228 93.0405 304.452 93.0405C299.637 93.0405 295.511 91.3593 292.568 88.1496C289.817 85.1693 288.289 81.0045 288.289 76.4575C288.289 66.7523 294.937 59.9892 304.452 59.9892C309.266 59.9892 313.355 61.6704 316.335 64.8418C319.162 67.8221 320.691 71.9488 320.691 76.4957C320.691 81.0045 319.162 85.1311 316.335 88.1496Z" fill="white"/>
<path d="M253.365 43.2534C251.951 43.2534 250.805 44.3615 250.805 45.737C250.805 47.1508 251.913 48.2971 253.365 48.2971C254.74 48.2971 255.848 47.1508 255.848 45.737C255.81 44.3615 254.702 43.2534 253.365 43.2534Z" fill="white"/>
<path d="M511.434 56.2446C505.55 56.2446 499.283 58.69 496.838 60.3331L496.8 60.3713C496.532 60.5623 496.303 60.7152 496.57 61.1737L497.258 63.0842C497.373 63.3516 497.487 63.5045 497.678 63.5427C497.831 63.5809 498.022 63.5427 498.213 63.428C500.659 62.0143 506.428 59.9892 510.517 59.9892C513.688 59.9892 515.904 60.6005 517.471 61.8614C519.496 63.5045 520.49 66.2938 520.49 70.344C520.49 70.7643 520.375 70.8789 520.031 70.8789C511.587 70.9171 505.053 72.0634 500.544 74.356C495.691 76.8014 493.246 80.5459 493.246 85.4368C493.246 88.5317 494.354 91.3593 496.341 93.3462C498.595 95.6005 501.996 96.7468 506.123 96.7468C510.899 96.7468 517.28 94.4924 520.031 91.8178C520.146 91.7031 520.26 91.6649 520.337 91.7031C520.413 91.7414 520.451 91.856 520.451 92.047V95.8298C520.451 96.2883 520.757 96.5558 521.177 96.5558H523.814C524.272 96.5558 524.54 96.2501 524.54 95.8298V74.0121C524.654 66.4848 524.654 56.2446 511.434 56.2446ZM520.528 87.3473C520.528 87.5765 520.528 87.7293 520.26 87.9204C515.752 91.7796 510.44 93.1551 507.002 93.1551C501.27 93.1551 497.564 90.0601 497.564 85.2839C497.564 81.2337 500.162 78.2534 505.244 76.4193C509.982 74.6999 515.943 74.3178 520.107 74.3178C520.413 74.3178 520.566 74.4706 520.566 74.7763V87.3473H520.528Z" fill="white"/>
<path d="M534.665 40.2349H531.953C531.494 40.2349 531.227 40.5405 531.227 40.9608V95.7534C531.227 96.2119 531.532 96.4794 531.953 96.4794H534.665C535.124 96.4794 535.391 96.1737 535.391 95.7534V40.9991C535.391 40.5405 535.124 40.2349 534.665 40.2349Z" fill="white"/>
<path d="M557.706 92.9642C557.667 92.735 557.591 92.5821 557.476 92.5057C557.285 92.3911 557.094 92.4293 556.789 92.5439C555.566 92.926 554.764 93.0024 553.503 93.0024C549.491 93.0024 549.491 88.914 549.491 80.0112V60.4479C549.491 60.1422 549.643 59.9893 549.949 59.9893H556.98C557.438 59.9893 557.706 59.6837 557.706 59.2634V57.009C557.706 56.5505 557.4 56.283 556.98 56.283H549.949C549.643 56.283 549.491 56.1302 549.491 55.8245V45.0494C549.491 44.7819 549.414 44.5527 549.223 44.438C549.07 44.3234 548.917 44.2852 548.726 44.3234L545.937 44.6291C545.517 44.7055 545.288 44.973 545.288 45.4315V55.7863C545.288 56.092 545.135 56.2448 544.829 56.2448H541.046C540.588 56.2448 540.32 56.5505 540.32 56.9708V59.2252C540.32 59.6837 540.626 59.9511 541.046 59.9511H544.829C545.135 59.9511 545.288 60.104 545.288 60.4097V79.973C545.288 80.4315 545.288 80.8518 545.288 81.3103C545.288 87.6149 545.249 92.5821 547.733 95.0658C548.841 96.1738 550.408 96.747 552.509 96.747C554.84 96.747 556.789 96.2121 557.744 95.6771C558.05 95.4479 558.202 95.104 558.088 94.7219L557.706 92.9642Z" fill="white"/>
<path d="M382.821 56.4739H379.955C379.573 56.4739 379.229 56.7413 379.153 57.0852L368.645 89.678C368.568 89.8691 368.454 90.0219 368.377 90.0219C368.301 90.0219 368.148 89.9073 368.072 89.678L356.762 56.9706C356.571 56.5121 356.265 56.4357 355.959 56.4357H353.323C352.864 56.4357 352.597 56.6267 352.52 56.9706L341.287 89.6398C341.21 89.8309 341.058 89.9837 340.943 89.9837C340.867 89.9837 340.752 89.8691 340.714 89.6398L330.13 57.0088C329.939 56.6267 329.671 56.3975 329.327 56.3975H326.461C326.156 56.3975 325.965 56.5503 325.888 56.6267C325.774 56.7796 325.774 57.0088 325.85 57.2381L338.994 95.868C339.109 96.0972 339.223 96.4411 339.873 96.4411H342.051C342.318 96.4411 342.739 96.4029 342.93 95.9062L354.393 63.0459C354.431 62.8549 354.507 62.7403 354.584 62.7403C354.66 62.7403 354.775 62.8549 354.851 63.0459L366.391 95.868C366.505 96.1354 366.62 96.4411 367.269 96.4411H369.447C369.715 96.4411 370.135 96.4029 370.326 95.9062L383.317 57.2381C383.356 56.9706 383.356 56.7413 383.241 56.5885C383.203 56.5503 383.05 56.4739 382.821 56.4739Z" fill="white"/>
<path d="M595.228 60.2948C592.629 57.5819 588.961 56.2446 584.3 56.2446C577.346 56.2446 571.691 60.3712 569.627 63.1605C569.474 63.3516 569.36 63.3898 569.283 63.3898C569.245 63.3515 569.169 63.2369 569.169 63.0459V40.9989C569.169 40.5404 568.863 40.2729 568.443 40.2729H565.73C565.271 40.2729 565.004 40.5786 565.004 40.9989V95.7915C565.004 96.25 565.31 96.5175 565.73 96.5175H568.443C568.901 96.5175 569.169 96.2118 569.169 95.7915V69.1594C571.232 63.9247 577.46 59.9891 583.688 59.9891C591.789 59.9891 595.572 64.9564 595.572 75.6168V95.7915C595.572 96.25 595.877 96.5175 596.298 96.5175H599.01C599.469 96.5175 599.736 96.2118 599.736 95.7915V74.9673C599.775 68.357 598.246 63.428 595.228 60.2948Z" fill="white"/>
<path d="M472.154 56.2446C466.843 56.2446 462.029 58.3462 458.628 62.1671C455.342 65.8734 453.508 70.9553 453.508 76.4575C453.508 82.2654 455.113 87.2326 458.131 90.8243C461.417 94.7217 466.27 96.7468 472.116 96.7468C476.204 96.7468 479.796 95.6769 482.853 93.6136C485.527 91.7796 487.591 89.2195 488.852 86.2392C488.928 86.0099 488.928 85.8189 488.852 85.7042C488.775 85.5514 488.584 85.4368 488.279 85.3986L485.718 85.0165C485.336 84.94 484.993 85.0929 484.801 85.475C483.808 87.2326 480.025 93.0405 472.001 93.0405C466.958 93.0405 462.946 91.0536 460.386 87.2708C458.36 84.2523 457.634 80.7752 457.634 78.6737C457.634 78.3298 457.749 78.2152 458.093 78.2152H489.119C489.578 78.2152 489.845 77.9095 489.845 77.4892V76.2665C489.845 71.2992 488.431 66.4466 485.948 62.9695C482.891 58.5754 478.115 56.2446 472.154 56.2446ZM485.107 74.6617H458.246C457.94 74.6617 457.787 74.5088 457.787 74.2031C457.864 68.4717 462.487 59.9128 472.154 59.8363H472.269C476.013 59.8363 479.07 60.9826 481.401 63.2752C484.496 66.3702 485.604 70.9935 485.604 74.2796C485.604 74.5088 485.413 74.6617 485.107 74.6617Z" fill="white"/>
<path d="M457.673 40.5405C457.559 40.3495 457.329 40.2349 457.024 40.2349H454.158C453.661 40.2349 453.279 40.4641 453.126 40.8462L438.989 86.6595C438.836 87.118 438.607 87.4237 438.377 87.4237C438.148 87.4237 437.919 87.118 437.766 86.6595L423.055 43.0242C422.979 42.6803 422.597 42.3746 422.253 42.3746H419.846C419.387 42.3746 419.12 42.5656 418.967 42.986L404.485 86.6213C404.294 87.0798 404.027 87.3855 403.798 87.3855C403.568 87.3855 403.377 87.0798 403.263 86.6213L388.972 40.8844C388.781 40.4259 388.514 40.2731 387.941 40.2731H384.999C384.693 40.2731 384.464 40.3877 384.349 40.5787C384.196 40.7698 384.196 41.0755 384.349 41.3812L401.62 95.9445C401.734 96.3266 402.155 96.5558 402.651 96.5558H404.447C404.944 96.5558 405.326 96.3266 405.479 95.9445L420.342 52.0034C420.495 51.5831 420.725 51.3156 420.992 51.3156C421.221 51.3156 421.451 51.5831 421.565 52.0034L436.505 95.9445C436.62 96.3266 437.04 96.5558 437.537 96.5558H439.333C439.791 96.5558 440.288 96.3648 440.364 95.9445L457.597 41.3812C457.826 41.0373 457.826 40.7316 457.673 40.5405Z" fill="white"/>
<path d="M134.994 32.2491C130.791 32.2491 126.664 33.3953 122.805 35.5733C122.767 35.4587 122.767 35.344 122.729 35.2294C121.201 27.1672 119.405 20.7862 117.38 16.2774C114.972 10.8899 112.259 8.25342 109.088 8.25342C105.917 8.25342 103.242 10.8899 100.797 16.2774C98.7715 20.7862 96.9756 27.129 95.4472 35.2294C92.3522 51.6213 90.6328 73.439 90.6328 96.5558H94.8359C94.8359 73.6683 96.5171 52.1563 99.5739 35.9936C103.089 17.4237 107.178 12.4565 109.05 12.4565C110.922 12.4565 115.011 17.4237 118.526 35.9936C118.64 36.6814 118.793 37.4073 118.908 38.1333C114.781 41.3429 110.96 45.8517 107.713 51.5449C100.758 63.6191 96.8992 79.5907 96.8992 96.5558H101.102C101.102 80.3167 104.732 65.0711 111.342 53.6464C113.864 49.2905 116.692 45.6988 119.71 42.9859C122.003 58.117 123.264 76.8397 123.264 96.594H127.467C127.467 75.6552 126.053 55.7862 123.493 40.0438C127.123 37.713 130.982 36.4903 134.918 36.4903C143.744 36.4903 152.112 42.6039 158.493 53.6464C165.103 65.0711 168.733 80.3167 168.733 96.5558H172.936C172.936 79.5907 169.115 63.5809 162.123 51.5449C155.016 39.0886 145.349 32.2491 134.994 32.2491Z" fill="white"/>
<path d="M69.9984 40.3496C63.9231 40.3496 59.2615 47.6476 56.1283 58.3845C52.3838 57.0854 48.3718 56.3594 44.2451 56.3594C23.268 56.3594 6.22656 74.3944 6.22656 96.5177H10.4296C10.4296 76.6869 25.5988 60.5625 44.2451 60.5625C48.0279 60.5625 51.6578 61.2121 55.0584 62.4348C52.6512 72.4075 51.4285 84.6345 51.4285 96.5177H55.6316C55.6316 84.6345 56.8161 73.3627 58.9558 64.1542C70.2659 70.0003 78.0606 82.3038 78.0606 96.5177H82.2637C82.2637 80.3169 73.1316 66.3321 60.0257 59.9893C60.1403 59.6073 60.2549 59.2252 60.3314 58.8813C63.0442 50.0166 66.7124 44.5145 69.9602 44.5145C73.208 44.5145 76.9143 50.0166 79.589 58.8813C82.6458 68.8922 84.327 82.2655 84.327 96.5177H88.53C88.5683 69.3125 82.0726 40.3496 69.9984 40.3496Z" fill="white"/>
</svg>
